<svg xmlns="http://www.w3.org/2000/svg" xmlns:xlink="http://www.w3.org/1999/xlink" width="1000" zoomAndPan="magnify" viewBox="0 0 750 749.999995" height="1000" preserveAspectRatio="xMidYMid meet" version="1.0"><defs><g/></defs><g fill="#000000" fill-opacity="1"><g transform="translate(0.00000265, 408.74157)"><g><path d="M 7 0 L 7 -97.96875 L 31.34375 -97.96875 L 51.640625 -54.71875 C 54.066406 -49.6875 55.976562 -45.535156 57.375 -42.265625 C 58.78125 -39.003906 59.878906 -36.296875 60.671875 -34.140625 C 61.460938 -31.992188 62.09375 -30.128906 62.5625 -28.546875 C 63.03125 -30.128906 63.632812 -31.992188 64.375 -34.140625 C 65.125 -36.296875 66.222656 -39.003906 67.671875 -42.265625 C 69.117188 -45.535156 71.003906 -49.6875 73.328125 -54.71875 L 93.765625 -97.96875 L 117.28125 -97.96875 L 117.28125 0 L 98.109375 0 L 98.109375 -39.609375 C 98.109375 -44.085938 98.15625 -47.910156 98.25 -51.078125 C 98.34375 -54.253906 98.503906 -57.171875 98.734375 -59.828125 C 98.972656 -62.484375 99.226562 -65.210938 99.5 -68.015625 L 66.890625 0 L 57.375 0 L 24.765625 -68.015625 C 25.140625 -65.210938 25.421875 -62.484375 25.609375 -59.828125 C 25.796875 -57.171875 25.9375 -54.253906 26.03125 -51.078125 C 26.125 -47.910156 26.171875 -44.085938 26.171875 -39.609375 L 26.171875 0 Z M 7 0 "/></g></g></g><g fill="#000000" fill-opacity="1"><g transform="translate(124.271963, 408.74157)"><g><path d="M 40.453125 1.8125 C 32.984375 1.8125 26.398438 0.0859375 20.703125 -3.359375 C 15.015625 -6.804688 10.609375 -11.398438 7.484375 -17.140625 C 4.359375 -22.878906 2.796875 -29.25 2.796875 -36.25 C 2.796875 -43.25 4.425781 -49.660156 7.6875 -55.484375 C 10.957031 -61.316406 15.414062 -65.957031 21.0625 -69.40625 C 26.707031 -72.863281 33.171875 -74.59375 40.453125 -74.59375 C 47.722656 -74.59375 54.132812 -72.863281 59.6875 -69.40625 C 65.238281 -65.957031 69.578125 -61.316406 72.703125 -55.484375 C 75.828125 -49.660156 77.390625 -43.25 77.390625 -36.25 C 77.390625 -35.21875 77.34375 -34.140625 77.25 -33.015625 C 77.15625 -31.898438 77.015625 -30.738281 76.828125 -29.53125 L 22.390625 -29.53125 C 23.421875 -25.238281 25.5 -21.738281 28.625 -19.03125 C 31.75 -16.320312 35.691406 -14.96875 40.453125 -14.96875 C 44.554688 -14.96875 48.125 -15.898438 51.15625 -17.765625 C 54.1875 -19.640625 56.539062 -21.972656 58.21875 -24.765625 L 72.921875 -13.71875 C 70.023438 -9.144531 65.679688 -5.410156 59.890625 -2.515625 C 54.109375 0.367188 47.628906 1.8125 40.453125 1.8125 Z M 22.390625 -43.671875 L 58.359375 -43.671875 C 57.335938 -47.773438 55.21875 -51.25 52 -54.09375 C 48.78125 -56.9375 44.835938 -58.359375 40.171875 -58.359375 C 35.691406 -58.359375 31.863281 -57.003906 28.6875 -54.296875 C 25.519531 -51.597656 23.421875 -48.054688 22.390625 -43.671875 Z M 22.390625 -43.671875 "/></g></g></g><g fill="#000000" fill-opacity="1"><g transform="translate(204.321051, 408.74157)"><g><path d="M 5.59375 0 L 5.59375 -72.78125 L 23.9375 -72.78125 L 23.9375 -58.921875 C 25.238281 -64.140625 27.753906 -68.125 31.484375 -70.875 C 35.222656 -73.632812 40.21875 -74.828125 46.46875 -74.453125 L 46.46875 -56.6875 L 43.8125 -56.6875 C 38.394531 -56.6875 33.816406 -54.957031 30.078125 -51.5 C 26.347656 -48.050781 24.484375 -43.296875 24.484375 -37.234375 L 24.484375 0 Z M 5.59375 0 "/></g></g></g><g fill="#000000" fill-opacity="1"><g transform="translate(247.984049, 408.74157)"><g><path d="M 38.765625 1.8125 C 32.140625 1.8125 26.097656 0.113281 20.640625 -3.28125 C 15.179688 -6.6875 10.84375 -11.257812 7.625 -17 C 4.40625 -22.738281 2.796875 -29.109375 2.796875 -36.109375 C 2.796875 -41.328125 3.726562 -46.242188 5.59375 -50.859375 C 7.457031 -55.484375 10.019531 -59.546875 13.28125 -63.046875 C 16.550781 -66.546875 20.351562 -69.296875 24.6875 -71.296875 C 29.03125 -73.304688 33.722656 -74.3125 38.765625 -74.3125 C 45.109375 -74.3125 50.050781 -73.117188 53.59375 -70.734375 C 57.144531 -68.359375 59.898438 -65.210938 61.859375 -61.296875 L 61.859375 -72.78125 L 80.609375 -72.78125 L 80.609375 0 L 62.28125 0 L 62.28125 -11.890625 C 60.320312 -7.785156 57.546875 -4.472656 53.953125 -1.953125 C 50.359375 0.554688 45.296875 1.8125 38.765625 1.8125 Z M 21.6875 -36.25 C 21.6875 -32.613281 22.523438 -29.1875 24.203125 -25.96875 C 25.890625 -22.75 28.25 -20.15625 31.28125 -18.1875 C 34.3125 -16.226562 37.832031 -15.25 41.84375 -15.25 C 46.039062 -15.25 49.65625 -16.207031 52.6875 -18.125 C 55.71875 -20.039062 58.070312 -22.582031 59.75 -25.75 C 61.4375 -28.925781 62.28125 -32.378906 62.28125 -36.109375 C 62.28125 -39.929688 61.4375 -43.425781 59.75 -46.59375 C 58.070312 -49.769531 55.71875 -52.335938 52.6875 -54.296875 C 49.65625 -56.253906 46.039062 -57.234375 41.84375 -57.234375 C 37.832031 -57.234375 34.3125 -56.273438 31.28125 -54.359375 C 28.25 -52.453125 25.890625 -49.910156 24.203125 -46.734375 C 22.523438 -43.566406 21.6875 -40.070312 21.6875 -36.25 Z M 21.6875 -36.25 "/></g></g></g><g fill="#000000" fill-opacity="1"><g transform="translate(334.19075, 408.74157)"><g><path d="M 53.734375 0 L 24.484375 -34.5625 L 24.484375 0 L 5.59375 0 L 5.59375 -102.171875 L 24.484375 -102.171875 L 24.484375 -43.390625 L 51.78125 -72.78125 L 78.65625 -72.78125 L 44.359375 -38.90625 L 78.796875 0 Z M 53.734375 0 "/></g></g></g><g fill="#000000" fill-opacity="1"><g transform="translate(412.280585, 408.74157)"><g><path d="M 5.59375 0 L 5.59375 -72.78125 L 24.484375 -72.78125 L 24.484375 0 Z M 3.640625 -89.984375 C 3.640625 -92.972656 4.734375 -95.5625 6.921875 -97.75 C 9.117188 -99.945312 11.800781 -101.046875 14.96875 -101.046875 C 18.238281 -101.046875 20.945312 -99.945312 23.09375 -97.75 C 25.238281 -95.5625 26.3125 -92.972656 26.3125 -89.984375 C 26.3125 -86.816406 25.238281 -84.160156 23.09375 -82.015625 C 20.945312 -79.867188 18.238281 -78.796875 14.96875 -78.796875 C 11.800781 -78.796875 9.117188 -79.890625 6.921875 -82.078125 C 4.734375 -84.273438 3.640625 -86.910156 3.640625 -89.984375 Z M 3.640625 -89.984375 "/></g></g></g><g fill="#000000" fill-opacity="1"><g transform="translate(442.368963, 408.74157)"><g><path d="M 15.671875 1.8125 C 12.035156 1.8125 9.023438 0.601562 6.640625 -1.8125 C 4.265625 -4.238281 3.078125 -7.132812 3.078125 -10.5 C 3.078125 -13.757812 4.265625 -16.601562 6.640625 -19.03125 C 9.023438 -21.457031 12.035156 -22.671875 15.671875 -22.671875 C 19.316406 -22.671875 22.300781 -21.457031 24.625 -19.03125 C 26.957031 -16.601562 28.125 -13.757812 28.125 -10.5 C 28.125 -7.132812 26.957031 -4.238281 24.625 -1.8125 C 22.300781 0.601562 19.316406 1.8125 15.671875 1.8125 Z M 15.671875 1.8125 "/></g></g></g><g fill="#000000" fill-opacity="1"><g transform="translate(470.777883, 408.74157)"><g><path d="M 40.3125 1.8125 C 35.082031 1.8125 30.203125 0.832031 25.671875 -1.125 C 21.148438 -3.082031 17.160156 -5.8125 13.703125 -9.3125 C 10.253906 -12.8125 7.570312 -16.867188 5.65625 -21.484375 C 3.75 -26.097656 2.796875 -31.066406 2.796875 -36.390625 C 2.796875 -43.484375 4.453125 -49.894531 7.765625 -55.625 C 11.078125 -61.363281 15.648438 -65.957031 21.484375 -69.40625 C 27.316406 -72.863281 33.914062 -74.59375 41.28125 -74.59375 C 47.90625 -74.6875 53.828125 -73.519531 59.046875 -71.09375 C 64.273438 -68.664062 68.429688 -65.304688 71.515625 -61.015625 L 56.953125 -49.125 C 55.273438 -51.644531 53.109375 -53.648438 50.453125 -55.140625 C 47.796875 -56.628906 44.832031 -57.375 41.5625 -57.375 C 37.550781 -57.375 34.050781 -56.414062 31.0625 -54.5 C 28.082031 -52.59375 25.773438 -50.050781 24.140625 -46.875 C 22.503906 -43.707031 21.6875 -40.210938 21.6875 -36.390625 C 21.6875 -32.660156 22.550781 -29.1875 24.28125 -25.96875 C 26.007812 -22.75 28.390625 -20.179688 31.421875 -18.265625 C 34.453125 -16.347656 37.972656 -15.390625 41.984375 -15.390625 C 45.617188 -15.390625 48.695312 -16.207031 51.21875 -17.84375 C 53.738281 -19.476562 55.929688 -21.554688 57.796875 -24.078125 L 71.515625 -12.171875 C 68.066406 -7.785156 63.796875 -4.359375 58.703125 -1.890625 C 53.617188 0.578125 47.488281 1.8125 40.3125 1.8125 Z M 40.3125 1.8125 "/></g></g></g><g fill="#000000" fill-opacity="1"><g transform="translate(539.491113, 408.74157)"><g><path d="M 41.5625 1.8125 C 34.101562 1.8125 27.429688 0.0859375 21.546875 -3.359375 C 15.671875 -6.804688 11.078125 -11.398438 7.765625 -17.140625 C 4.453125 -22.878906 2.796875 -29.25 2.796875 -36.25 C 2.796875 -43.25 4.453125 -49.640625 7.765625 -55.421875 C 11.078125 -61.203125 15.671875 -65.816406 21.546875 -69.265625 C 27.429688 -72.722656 34.101562 -74.453125 41.5625 -74.453125 C 49.125 -74.453125 55.816406 -72.722656 61.640625 -69.265625 C 67.472656 -65.816406 72.046875 -61.203125 75.359375 -55.421875 C 78.671875 -49.640625 80.328125 -43.25 80.328125 -36.25 C 80.328125 -29.25 78.671875 -22.878906 75.359375 -17.140625 C 72.046875 -11.398438 67.472656 -6.804688 61.640625 -3.359375 C 55.816406 0.0859375 49.125 1.8125 41.5625 1.8125 Z M 21.6875 -36.25 C 21.6875 -32.519531 22.503906 -29.066406 24.140625 -25.890625 C 25.773438 -22.722656 28.082031 -20.179688 31.0625 -18.265625 C 34.050781 -16.347656 37.550781 -15.390625 41.5625 -15.390625 C 45.570312 -15.390625 49.070312 -16.347656 52.0625 -18.265625 C 55.050781 -20.179688 57.359375 -22.722656 58.984375 -25.890625 C 60.617188 -29.066406 61.4375 -32.519531 61.4375 -36.25 C 61.4375 -40.070312 60.617188 -43.566406 58.984375 -46.734375 C 57.359375 -49.910156 55.050781 -52.453125 52.0625 -54.359375 C 49.070312 -56.273438 45.570312 -57.234375 41.5625 -57.234375 C 37.550781 -57.234375 34.050781 -56.273438 31.0625 -54.359375 C 28.082031 -52.453125 25.773438 -49.910156 24.140625 -46.734375 C 22.503906 -43.566406 21.6875 -40.070312 21.6875 -36.25 Z M 21.6875 -36.25 "/></g></g></g><g fill="#000000" fill-opacity="1"><g transform="translate(622.61898, 408.74157)"><g><path d="M 5.59375 0 L 5.59375 -72.78125 L 24.21875 -72.78125 L 24.21875 -62.140625 C 28.039062 -70.347656 35.457031 -74.453125 46.46875 -74.453125 C 51.59375 -74.453125 56.234375 -73.257812 60.390625 -70.875 C 64.546875 -68.5 67.785156 -65.117188 70.109375 -60.734375 C 72.535156 -65.117188 75.660156 -68.5 79.484375 -70.875 C 83.316406 -73.257812 88.40625 -74.453125 94.75 -74.453125 C 99.96875 -74.453125 104.675781 -73.238281 108.875 -70.8125 C 113.082031 -68.382812 116.394531 -64.929688 118.8125 -60.453125 C 121.238281 -55.972656 122.453125 -50.65625 122.453125 -44.5 L 122.453125 0 L 103.5625 0 L 103.5625 -39.890625 C 103.5625 -46.234375 102.207031 -50.828125 99.5 -53.671875 C 96.800781 -56.515625 93.304688 -57.9375 89.015625 -57.9375 C 84.628906 -57.9375 81.054688 -56.675781 78.296875 -54.15625 C 75.546875 -51.644531 74.171875 -46.890625 74.171875 -39.890625 L 74.171875 0 L 55.28125 0 L 55.28125 -39.890625 C 55.28125 -46.234375 53.832031 -50.828125 50.9375 -53.671875 C 48.050781 -56.515625 44.273438 -57.9375 39.609375 -57.9375 C 35.597656 -57.9375 32.070312 -56.515625 29.03125 -53.671875 C 26 -50.828125 24.484375 -46.234375 24.484375 -39.890625 L 24.484375 0 Z M 5.59375 0 "/></g></g></g></svg>