<svg xmlns="http://www.w3.org/2000/svg" xmlns:xlink="http://www.w3.org/1999/xlink" width="40" zoomAndPan="magnify" viewBox="0 0 30 30.000001" height="40" preserveAspectRatio="xMidYMid meet" version="1.0"><defs><g/><clipPath id="1ab52f9604"><path d="M 0.484375 0 L 29.515625 0 L 29.515625 29.03125 L 0.484375 29.03125 Z M 0.484375 0 " clip-rule="nonzero"/></clipPath><clipPath id="981171f444"><path d="M 1.933594 0 L 28.066406 0 C 28.867188 0 29.515625 0.648438 29.515625 1.453125 L 29.515625 27.582031 C 29.515625 28.382812 28.867188 29.03125 28.066406 29.03125 L 1.933594 29.03125 C 1.132812 29.03125 0.484375 28.382812 0.484375 27.582031 L 0.484375 1.453125 C 0.484375 0.648438 1.132812 0 1.933594 0 Z M 1.933594 0 " clip-rule="nonzero"/></clipPath></defs><g clip-path="url(#1ab52f9604)"><g clip-path="url(#981171f444)"><path fill="#2a2a2a" d="M 0.484375 0 L 29.515625 0 L 29.515625 29.03125 L 0.484375 29.03125 Z M 0.484375 0 " fill-opacity="1" fill-rule="nonzero"/></g></g><g fill="#ffffff" fill-opacity="1"><g transform="translate(2.653266, 21.396203)"><g><path d="M 1.390625 0 L 1.390625 -19.453125 L 6.21875 -19.453125 L 10.25 -10.875 C 10.738281 -9.875 11.117188 -9.046875 11.390625 -8.390625 C 11.671875 -7.742188 11.890625 -7.207031 12.046875 -6.78125 C 12.203125 -6.351562 12.328125 -5.984375 12.421875 -5.671875 C 12.515625 -5.984375 12.632812 -6.351562 12.78125 -6.78125 C 12.9375 -7.207031 13.15625 -7.742188 13.4375 -8.390625 C 13.726562 -9.046875 14.101562 -9.875 14.5625 -10.875 L 18.625 -19.453125 L 23.296875 -19.453125 L 23.296875 0 L 19.484375 0 L 19.484375 -7.859375 C 19.484375 -8.753906 19.492188 -9.515625 19.515625 -10.140625 C 19.535156 -10.773438 19.566406 -11.351562 19.609375 -11.875 C 19.660156 -12.40625 19.710938 -12.953125 19.765625 -13.515625 L 13.28125 0 L 11.390625 0 L 4.921875 -13.515625 C 4.992188 -12.953125 5.046875 -12.40625 5.078125 -11.875 C 5.117188 -11.351562 5.148438 -10.773438 5.171875 -10.140625 C 5.191406 -9.515625 5.203125 -8.753906 5.203125 -7.859375 L 5.203125 0 Z M 1.390625 0 "/></g></g></g></svg>